<svg width="50" height="30" viewBox="0 0 50 30" fill="none" xmlns="http://www.w3.org/2000/svg">
<rect width="50" height="30" rx="15" fill="#E63C32"/>
<path d="M4.29289 14.2929C3.90237 14.6834 3.90237 15.3166 4.29289 15.7071L10.6569 22.0711C11.0474 22.4616 11.6805 22.4616 12.0711 22.0711C12.4616 21.6805 12.4616 21.0474 12.0711 20.6569L6.41421 15L12.0711 9.34315C12.4616 8.95262 12.4616 8.31946 12.0711 7.92893C11.6805 7.53841 11.0474 7.53841 10.6569 7.92893L4.29289 14.2929ZM20 14L5 14L5 16L20 16L20 14Z" fill="white"/>
<path d="M45.7071 15.7071C46.0976 15.3166 46.0976 14.6834 45.7071 14.2929L39.3431 7.92893C38.9526 7.53841 38.3195 7.53841 37.9289 7.92893C37.5384 8.31946 37.5384 8.95262 37.9289 9.34315L43.5858 15L37.9289 20.6569C37.5384 21.0474 37.5384 21.6805 37.9289 22.0711C38.3195 22.4616 38.9526 22.4616 39.3431 22.0711L45.7071 15.7071ZM30 16H45V14H30V16Z" fill="white"/>
</svg>
